<?xml version="1.0" encoding="UTF-8"?>
<svg xmlns="http://www.w3.org/2000/svg" xmlns:xlink="http://www.w3.org/1999/xlink" width="768px" height="329px" viewBox="0 0 385 165" version="1.1">
<g id="surface1">
<path style=" stroke:none;fill-rule:nonzero;fill:rgb(89.803922%,67.450982%,17.647059%);fill-opacity:1;" d="M 213.054688 1.503906 C 213.671875 1.648438 213.671875 1.648438 214.300781 1.796875 C 229.609375 5.507812 242.382812 13.242188 253.660156 24.074219 C 254.074219 24.464844 254.074219 24.464844 254.496094 24.867188 C 256.75 27.058594 258.6875 29.40625 260.582031 31.910156 C 260.871094 32.277344 261.15625 32.648438 261.453125 33.03125 C 261.726562 33.390625 262 33.75 262.285156 34.121094 C 262.53125 34.445312 262.777344 34.765625 263.027344 35.097656 C 263.761719 36.226562 264.203125 37.367188 264.6875 38.617188 C 265.121094 38.613281 265.121094 38.613281 265.5625 38.613281 C 272.640625 38.578125 279.71875 38.554688 286.796875 38.539062 C 290.21875 38.53125 293.640625 38.519531 297.0625 38.503906 C 300.371094 38.488281 303.679688 38.476562 306.992188 38.472656 C 308.246094 38.472656 309.503906 38.464844 310.757812 38.457031 C 320.492188 38.398438 329.027344 39.367188 338.347656 42.253906 C 339 42.453125 339.648438 42.648438 340.300781 42.847656 C 345.273438 44.375 350.128906 46.125 354.921875 48.144531 C 354.886719 49.050781 354.886719 49.050781 354.421875 50.152344 C 353.246094 50.800781 352.191406 51.265625 350.941406 51.71875 C 350.5625 51.863281 350.183594 52.003906 349.792969 52.152344 C 345.421875 53.742188 340.957031 55.042969 336.5 56.359375 C 336.121094 56.46875 335.742188 56.582031 335.351562 56.695312 C 334.253906 57.019531 333.15625 57.339844 332.058594 57.65625 C 331.730469 57.75 331.398438 57.847656 331.0625 57.945312 C 327.417969 58.988281 324.074219 59.25 320.308594 59.234375 C 319.8125 59.238281 319.3125 59.238281 318.796875 59.238281 C 317.152344 59.234375 315.507812 59.230469 313.867188 59.226562 C 312.722656 59.226562 311.582031 59.226562 310.441406 59.226562 C 307.4375 59.222656 304.4375 59.21875 301.433594 59.214844 C 298.371094 59.207031 295.304688 59.207031 292.242188 59.203125 C 286.230469 59.199219 280.222656 59.191406 274.210938 59.179688 C 274.351562 59.691406 274.488281 60.207031 274.632812 60.738281 C 274.816406 61.417969 275 62.101562 275.183594 62.785156 C 275.273438 63.121094 275.367188 63.460938 275.460938 63.808594 C 276.339844 67.085938 276.777344 69.839844 276.71875 73.222656 C 277.105469 73.21875 277.488281 73.21875 277.886719 73.21875 C 287.285156 73.183594 296.683594 73.160156 306.082031 73.144531 C 310.628906 73.136719 315.171875 73.125 319.71875 73.109375 C 323.683594 73.09375 327.648438 73.082031 331.613281 73.082031 C 333.710938 73.078125 335.808594 73.074219 337.902344 73.0625 C 339.882812 73.050781 341.863281 73.050781 343.84375 73.050781 C 344.566406 73.050781 345.285156 73.046875 346.003906 73.042969 C 353.933594 72.980469 361.21875 74.457031 368.738281 76.890625 C 369.363281 77.085938 369.988281 77.285156 370.632812 77.488281 C 381.316406 80.910156 381.316406 80.910156 385 82.75 C 384.847656 83.703125 384.847656 83.703125 384.5 84.757812 C 383.203125 85.40625 382.011719 85.890625 380.644531 86.355469 C 380.234375 86.5 379.824219 86.644531 379.402344 86.792969 C 375.359375 88.195312 371.265625 89.441406 367.171875 90.679688 C 366.851562 90.777344 366.53125 90.875 366.199219 90.976562 C 365.257812 91.261719 364.320312 91.539062 363.378906 91.820312 C 362.835938 91.980469 362.292969 92.140625 361.734375 92.308594 C 356.832031 93.597656 352.226562 93.925781 347.175781 93.898438 C 346.402344 93.898438 345.632812 93.898438 344.859375 93.898438 C 342.78125 93.898438 340.703125 93.894531 338.621094 93.886719 C 336.445312 93.878906 334.265625 93.878906 332.085938 93.878906 C 327.96875 93.875 323.847656 93.867188 319.730469 93.855469 C 315.039062 93.84375 310.347656 93.839844 305.65625 93.835938 C 296.007812 93.824219 286.363281 93.804688 276.71875 93.785156 C 276.65625 94.253906 276.59375 94.722656 276.527344 95.207031 C 276.441406 95.832031 276.355469 96.453125 276.269531 97.09375 C 276.144531 98.015625 276.144531 98.015625 276.015625 98.957031 C 275.609375 101.472656 274.957031 103.886719 274.210938 106.320312 C 275.132812 106.324219 275.132812 106.324219 276.074219 106.328125 C 281.898438 106.347656 287.722656 106.375 293.550781 106.414062 C 296.542969 106.433594 299.535156 106.449219 302.53125 106.457031 C 305.425781 106.464844 308.324219 106.484375 311.21875 106.507812 C 312.316406 106.515625 313.414062 106.519531 314.511719 106.519531 C 321.238281 106.523438 327.371094 107.035156 333.867188 108.828125 C 334.488281 109 335.109375 109.171875 335.75 109.347656 C 337.335938 109.796875 338.90625 110.277344 340.476562 110.773438 C 341.03125 110.945312 341.582031 111.121094 342.152344 111.296875 C 351.890625 114.390625 351.890625 114.390625 354.421875 115.851562 C 354.75 116.898438 354.75 116.898438 354.921875 117.855469 C 350.15625 119.835938 345.375 121.617188 340.449219 123.152344 C 339.445312 123.46875 338.445312 123.789062 337.445312 124.113281 C 328.625 126.914062 320.449219 127.570312 311.230469 127.421875 C 308.316406 127.378906 305.40625 127.371094 302.492188 127.359375 C 298.046875 127.335938 293.601562 127.300781 289.15625 127.226562 C 285.808594 127.171875 282.464844 127.152344 279.121094 127.152344 C 277.851562 127.148438 276.585938 127.128906 275.316406 127.097656 C 268.992188 126.660156 268.992188 126.660156 263.175781 128.578125 C 261.328125 130.433594 260.289062 132.5625 259.171875 134.910156 C 258.195312 136.15625 258.195312 136.15625 257.34375 137.0625 C 257.070312 137.355469 256.796875 137.644531 256.519531 137.945312 C 256.246094 138.226562 255.976562 138.507812 255.695312 138.796875 C 255.398438 139.109375 255.101562 139.417969 254.792969 139.742188 C 241.90625 153.128906 225.332031 161.539062 207.039062 164.5 C 206.1875 164.636719 206.1875 164.636719 205.316406 164.777344 C 196.183594 165.867188 185.890625 165.65625 176.960938 163.496094 C 176.542969 163.394531 176.125 163.296875 175.695312 163.195312 C 164.007812 160.316406 152.980469 155.238281 143.652344 147.585938 C 142.855469 146.933594 142.054688 146.292969 141.253906 145.652344 C 138.3125 143.285156 135.746094 140.828125 133.347656 137.917969 C 132.691406 137.195312 132.03125 136.476562 131.371094 135.753906 C 130.269531 134.542969 129.328125 133.394531 128.472656 131.992188 C 126.746094 129.109375 126.746094 129.109375 123.984375 127.382812 C 122.375 127.195312 120.847656 127.183594 119.230469 127.230469 C 118.628906 127.226562 118.027344 127.222656 117.410156 127.21875 C 115.769531 127.210938 114.136719 127.230469 112.496094 127.261719 C 110.773438 127.285156 109.050781 127.277344 107.324219 127.269531 C 104.058594 127.265625 100.792969 127.289062 97.523438 127.324219 C 92.75 127.371094 87.976562 127.378906 83.199219 127.386719 C 82.488281 127.386719 81.78125 127.386719 81.070312 127.390625 C 80.722656 127.390625 80.375 127.390625 80.019531 127.390625 C 77.648438 127.394531 75.277344 127.414062 72.910156 127.433594 C 71.65625 127.441406 70.402344 127.449219 69.148438 127.457031 C 68.316406 127.46875 68.316406 127.46875 67.46875 127.480469 C 61.960938 127.507812 56.535156 126.851562 51.277344 125.183594 C 50.902344 125.070312 50.53125 124.957031 50.144531 124.839844 C 49.371094 124.601562 48.59375 124.359375 47.816406 124.117188 C 46.65625 123.75 45.496094 123.398438 44.332031 123.042969 C 39.476562 121.550781 34.761719 119.824219 30.078125 117.855469 C 30.238281 116.90625 30.238281 116.90625 30.578125 115.851562 C 31.78125 115.195312 32.871094 114.71875 34.152344 114.253906 C 34.535156 114.109375 34.921875 113.960938 35.316406 113.8125 C 39.363281 112.339844 43.492188 111.128906 47.625 109.925781 C 47.957031 109.828125 48.292969 109.730469 48.636719 109.632812 C 49.613281 109.347656 50.59375 109.066406 51.570312 108.789062 C 52.421875 108.546875 52.421875 108.546875 53.289062 108.300781 C 57.535156 107.21875 61.449219 106.679688 65.832031 106.710938 C 66.375 106.710938 66.921875 106.710938 67.480469 106.710938 C 69.257812 106.710938 71.039062 106.71875 72.816406 106.726562 C 74.058594 106.726562 75.300781 106.730469 76.539062 106.730469 C 79.792969 106.734375 83.042969 106.742188 86.296875 106.753906 C 89.617188 106.765625 92.941406 106.769531 96.265625 106.773438 C 102.777344 106.785156 109.289062 106.800781 115.800781 106.824219 C 115.582031 106.246094 115.367188 105.664062 115.144531 105.070312 C 113.964844 101.566406 113.421875 97.917969 112.792969 94.285156 C 112.167969 94.285156 112.167969 94.285156 111.53125 94.285156 C 101.347656 94.277344 91.167969 94.257812 80.984375 94.21875 C 76.058594 94.203125 71.136719 94.1875 66.210938 94.1875 C 61.914062 94.1875 57.617188 94.175781 53.320312 94.15625 C 51.050781 94.144531 48.78125 94.136719 46.507812 94.140625 C 28.390625 94.171875 28.390625 94.171875 19.550781 91.277344 C 18.6875 91.011719 17.824219 90.746094 16.960938 90.480469 C 15.007812 89.875 13.066406 89.234375 11.128906 88.570312 C 9.933594 88.164062 8.734375 87.761719 7.539062 87.363281 C 6.765625 87.105469 5.996094 86.84375 5.226562 86.585938 C 4.875 86.464844 4.519531 86.347656 4.15625 86.226562 C 2.609375 85.695312 1.371094 85.171875 0 84.253906 C 0 83.757812 0 83.261719 0 82.75 C 10.71875 78.148438 23.285156 73.152344 35.085938 73.160156 C 35.421875 73.160156 35.757812 73.160156 36.101562 73.160156 C 37.210938 73.160156 38.324219 73.164062 39.433594 73.164062 C 40.234375 73.164062 41.035156 73.164062 41.835938 73.164062 C 44.003906 73.164062 46.171875 73.167969 48.335938 73.171875 C 50.601562 73.175781 52.871094 73.175781 55.136719 73.175781 C 59.425781 73.175781 63.714844 73.179688 68.003906 73.1875 C 72.890625 73.191406 77.773438 73.195312 82.65625 73.195312 C 92.703125 73.203125 102.746094 73.210938 112.792969 73.222656 C 112.816406 72.878906 112.839844 72.53125 112.867188 72.175781 C 113.113281 69.0625 113.5625 66.121094 114.328125 63.097656 C 114.421875 62.714844 114.515625 62.332031 114.609375 61.941406 C 114.835938 61.019531 115.066406 60.097656 115.300781 59.179688 C 115.019531 59.179688 114.742188 59.183594 114.453125 59.183594 C 107.628906 59.230469 100.800781 59.261719 93.976562 59.285156 C 90.675781 59.292969 87.371094 59.308594 84.070312 59.332031 C 80.878906 59.351562 77.6875 59.363281 74.496094 59.371094 C 73.285156 59.375 72.074219 59.378906 70.859375 59.390625 C 63.964844 59.449219 57.761719 59.183594 51.132812 57.171875 C 50.460938 56.980469 49.789062 56.785156 49.117188 56.59375 C 47.304688 56.070312 45.507812 55.515625 43.707031 54.949219 C 43.101562 54.761719 42.5 54.578125 41.875 54.386719 C 38.941406 53.472656 36.039062 52.496094 33.175781 51.386719 C 32.6875 51.199219 32.199219 51.011719 31.695312 50.816406 C 30.578125 50.152344 30.578125 50.152344 30.167969 49.070312 C 30.121094 48.613281 30.121094 48.613281 30.078125 48.144531 C 34.984375 46.085938 39.910156 44.332031 45.011719 42.820312 C 46.101562 42.5 47.1875 42.171875 48.273438 41.84375 C 55.511719 39.675781 61.761719 38.515625 69.320312 38.617188 C 70.554688 38.628906 71.785156 38.640625 73.015625 38.652344 C 73.664062 38.65625 74.308594 38.664062 74.976562 38.671875 C 77.007812 38.6875 79.042969 38.699219 81.078125 38.703125 C 81.59375 38.703125 81.59375 38.703125 82.121094 38.707031 C 83.539062 38.710938 84.960938 38.710938 86.378906 38.714844 C 90.390625 38.722656 94.402344 38.742188 98.414062 38.792969 C 101.617188 38.835938 104.816406 38.851562 108.015625 38.84375 C 109.703125 38.839844 111.390625 38.847656 113.082031 38.882812 C 119.6875 39.332031 119.6875 39.332031 125.816406 37.472656 C 127.546875 35.773438 128.414062 33.828125 129.335938 31.597656 C 130.203125 30.40625 130.203125 30.40625 130.972656 29.523438 C 131.21875 29.238281 131.464844 28.949219 131.71875 28.652344 C 131.964844 28.375 132.214844 28.09375 132.46875 27.804688 C 132.746094 27.488281 133.019531 27.175781 133.304688 26.855469 C 152.742188 5.105469 184.464844 -5.480469 213.054688 1.503906 Z M 149.324219 43.257812 C 139.152344 55.148438 133.929688 70.632812 134.851562 86.261719 C 136.226562 103.214844 143.980469 117.863281 156.78125 128.984375 C 168.910156 138.75 184.652344 143.796875 200.191406 142.320312 C 214.859375 140.617188 227.007812 134.582031 237.617188 124.375 C 237.933594 124.097656 238.25 123.816406 238.578125 123.527344 C 247.816406 115.121094 253.835938 100.554688 254.660156 88.265625 C 255.445312 71.425781 251.21875 55.878906 239.90625 43.066406 C 239.144531 42.25 238.382812 41.433594 237.617188 40.625 C 237.273438 40.246094 236.929688 39.871094 236.574219 39.484375 C 226.59375 28.945312 211.796875 23.070312 197.429688 22.425781 C 178.550781 21.925781 162.164062 29.535156 149.324219 43.257812 Z M 149.324219 43.257812 "/>
<path style=" stroke:none;fill-rule:nonzero;fill:rgb(89.803922%,67.450982%,17.647059%);fill-opacity:1;" d="M 213.976562 57.171875 C 220.394531 62.109375 224.84375 69.175781 226.085938 77.234375 C 226.8125 86.199219 225.527344 94.433594 219.984375 101.742188 C 218.886719 102.988281 217.753906 104.160156 216.5625 105.320312 C 216.253906 105.636719 215.949219 105.957031 215.628906 106.28125 C 209.78125 111.933594 201.796875 114.105469 193.859375 114.019531 C 185.484375 113.757812 178.203125 110.679688 172.292969 104.757812 C 168.472656 100.667969 166.121094 96.617188 164.425781 91.277344 C 164.304688 90.90625 164.179688 90.539062 164.054688 90.160156 C 161.84375 82.261719 163.628906 73.496094 167.359375 66.417969 C 171.625 59.246094 178.8125 54.105469 186.734375 51.71875 C 196.480469 49.582031 205.839844 51.445312 213.976562 57.171875 Z M 213.976562 57.171875 "/>
</g>
</svg>
